<svg height="185" viewBox="0 0 277 185" width="277" xmlns="http://www.w3.org/2000/svg" xmlns:xlink="http://www.w3.org/1999/xlink"><mask id="a" fill="#fff"><path d="m0 .3015997h243.357706v116.2918183h-243.357706z" fill="#fff" fill-rule="evenodd"/></mask><mask id="b" fill="#fff"><path d="m0 .33692625h32.6489939v45.48504385h-32.6489939z" fill="#fff" fill-rule="evenodd"/></mask><mask id="c" fill="#fff"><path d="m0 45.634976h276.470158v-45.634976h-276.470158z" fill="#fff" fill-rule="evenodd"/></mask><mask id="d" fill="#fff"><path d="m0 45.634976h276.470158v-45.634976h-276.470158z" fill="#fff" fill-rule="evenodd"/></mask><mask id="e" fill="#fff"><path d="m0 45.634976h276.470158v-45.634976h-276.470158z" fill="#fff" fill-rule="evenodd"/></mask><mask id="f" fill="#fff"><path d="m0 45.634976h276.470158v-45.634976h-276.470158z" fill="#fff" fill-rule="evenodd"/></mask><g fill="none" fill-rule="nonzero"><g transform="translate(15)"><path d="m171.56749 64.2633745c0-20.2620924-12.028122-37.7087068-29.347039-45.6553305 10.57441-9.08647867 24.32904-14.59158309 39.379448-14.59158309 33.356413 0 60.391871 26.97537129 60.391871 60.24691359zm-94.114404 0c0-20.2620924 12.0281224-37.7087068 29.347039-45.6553305-10.5744099-9.08647867-24.3290398-14.59158309-39.3794478-14.59158309-33.3564133 0-60.39187062 26.97537129-60.39187062 60.24691359z" fill="#f8b214"/><path d="m121.49434 63.2592593c0 18.244553-8.176661 34.5845141-21.082817 45.6239597 6.418859 2.932353 13.554526 4.581802 21.086419 4.581802 7.528292 0 14.663959-1.649449 21.08642-4.581802-12.906157-11.0394456-21.08642-27.3794067-21.08642-45.6239597" fill="#eb6052"/><path d="m170.699588 61.7548856c0-20.2770537-11.994135-37.740149-29.258963-45.689042-12.8207 11.0579213-20.946798 27.416304-20.946798 45.6854436 0 18.2727381 8.126098 34.6311208 20.946798 45.6890418 17.264828-7.9524911 29.258963-25.411988 29.258963-45.6890418" fill="#f1f0f0"/><path d="m72.2962963 61.7548856c0-20.2770537 11.9949902-37.740149 29.2574697-45.689042 12.821614 11.0579213 20.948292 27.416304 20.948292 45.6854436 0 18.2727381-8.126678 34.6311208-20.948292 45.6890418-17.2624795-7.9524911-29.2574697-25.411988-29.2574697-45.6890418" fill="#f1f0f0"/><g fill="#302d51"><path d="m174.969529 58.9088844-.071764-.6821898c-.02153-.190295-.035883-.3805901-.061-.5744756-.057412-.4883043-.118412-.980199-.190177-1.4685033l-.035882-.2692855c-.086118-.5744756-.179412-1.1489512-.287059-1.7234268l-.089706-.4775329c-.078941-.4164948-.165059-.8293992-.251176-1.2423035l-.132765-.5852471c-.089706-.3913615-.183-.7791325-.279882-1.1669036l-.14353-.5493423c-.122-.4739424-.251176-.9442943-.394706-1.4146462l-.071764-.258514c-.165059-.5493423-.340883-1.0986846-.520294-1.6444365l-.165059-.4667614c-.136353-.394952-.272706-.7827231-.419824-1.1704941l-.215294-.5672947c-.139941-.3662282-.287059-.7324564-.430588-1.0950941-.071765-.1795237-.147118-.3554568-.222471-.5277995-.186588-.4452186-.380353-.8868467-.581294-1.3284749l-.111235-.2513331c-.240412-.5206185-.488-1.0340561-.746353-1.5439032-.071765-.1507998-.154294-.3015997-.233235-.4523995-.183-.3626378-.373177-.7252755-.566942-1.0807323l-.294235-.5385709-.577706-1.0053323-.297823-.5062567c-.244-.4093139-.495177-.8114468-.746353-1.2099892l-.161471-.2513331c-.308588-.4811234-.624353-.9514753-.947294-1.4182367l-.301412-.4308567c-.229647-.3231426-.46647-.6534661-.706882-.9766086l-.369588-.4990757c-.233236-.3051902-.470059-.6103803-.710471-.91198l-.366-.4667615c-.297823-.3626377-.602823-.7252754-.907823-1.0879132l-.197353-.2333807c-.373177-.4308567-.75353-.850942-1.137471-1.2710273l-.362412-.3841806c-.276294-.2944187-.556176-.585247-.836059-.8724848l-.444941-.4452186c-.272706-.272876-.552588-.5385709-.83247-.8078564l-.430589-.4057234c-.351647-.3303235-.71047-.653466-1.072882-.9694276l-.211706-.1938855c-.430588-.3769996-.871941-.7468183-1.316882-1.1130465l-.409059-.3231426-.968823-.7611802-.491589-.3698186c-.322941-.2369712-.645882-.4739424-.968823-.7037327l-.470059-.3303235c-.416235-.2872378-.836059-.5744756-1.255882-.850942l-.200942-.129257-.035882-.0251333c8.705059-5.6873086 18.931529-8.7607532 29.427118-8.7607532 28.024117 0 51.09647 21.4889787 53.511353 48.794523zm-9.31147 6.2797366-.028706.5170281c-.014353.3410949-.032294.6821898-.057412 1.0196942l-.050235.6139708-.086118.919161c-.021529.2154284-.050235.4308567-.078941.6462851l-.111235.8724848-.104059.667828c-.043059.2800568-.089706.5565232-.139941.8365801-.039471.2261997-.086118.4523995-.129177.6750088-.050235.2728759-.107647.5457519-.165059.8150373l-.154294.6821898-.190176.7970849-.179412.6785994-.215294.782723-.204529.6750089-.244.7719516c-.071765.2226093-.14353.4452186-.222471.6642374l-.272706.7611802-.244.6570565-.301412.7539992-.261941.6462851-.330117.7504088-.279883.6211518-.362412.7539992-.294235.5996089-.40547.7683612c-.100471.1867046-.193765.3734091-.297824.5565232l-.491588.8653039-.251177.4380377c-.254764.4272662-.516706.8473515-.785823 1.2638464l-.276294.4129043c-.179412.2800569-.366.5601137-.556177.8365801-.118412.1723427-.244.3410949-.366.5134376-.168647.2369712-.337294.4739424-.509529.7037327l-.409059.5349804c-.168647.2190188-.333706.4416281-.509529.6570565l-.434177.5313899c-.172235.2118379-.344471.4200853-.523882.6283327-.150706.1795237-.305.3518663-.459294.524209l-.538236.6031994-.480823.5134376c-.183.197476-.369588.3913615-.559765.5816566l-.498765.5026662-.577706.5601137-.513117.4811233-.602824.5457519-.531059.4667614-.624352.524209c-.179412.1472094-.358824.2980092-.541824.4416281-.215294.1759332-.434176.3446854-.656647.5134376-.179412.1436189-.358824.2800569-.545412.4164948-.226059.1723427-.459294.3375045-.692529.5026662l-.541824.3913615c-.244.1687522-.488.3303235-.735588.4918952l-.538235.359047c-.261941.168752-.527471.330323-.793.495485l-.50953.312371c-.305.179524-.617176.355457-.925764.53139l-.412647.233381-.046648.025133-.107647-.107714c-.613588-.596018-1.212823-1.199218-1.794117-1.82037l-.014353-.010771c-.577706-.6175613-1.137471-1.2494845-1.686471-1.8921791l-.143529-.1651618c-.520294-.6175613-1.022647-1.245894-1.514235-1.8814076l-.20453-.265695c-.473647-.6211518-.932941-1.2530749-1.374294-1.8921791l-.222471-.3231425c-.434176-.6319232-.854-1.2782083-1.263058-1.9316743l-.208118-.3410949c-.401882-.6570565-.789412-1.3212939-1.162588-1.9927123l-.179412-.326733c-.376765-.6893707-.735588-1.382332-1.080059-2.0824741l-.129176-.2692855c-.351647-.7324564-.688942-1.4685033-1.004706-2.2117311l-.057412-.136438c-.322941-.7539992-.624353-1.5151794-.907824-2.2799501l-.050235-.1328475c-.279882-.7611802-.538235-1.5331318-.789412-2.3086739l-.086117-.2728759c-.233236-.7539993-.44853-1.5079985-.645883-2.2691787l-.093294-.3518663c-.193764-.7539993-.366-1.5079985-.52747-2.2619978l-.078941-.3841805c-.150706-.7611802-.287059-1.5223604-.409059-2.2907216l-.057412-.3769996c-.114824-.7755421-.215294-1.5546747-.297824-2.3409882l-.032294-.3231425c-.078941-.8078563-.143529-1.6157127-.186588-2.43075 0-.0718094 0-.1436189-.007176-.2154283-.039471-.850942-.064589-1.7054745-.064589-2.567188 0-.8617134.025118-1.7126554.064589-2.5671879l.007176-.2154283c.043059-.8114469.107647-1.6228937.186588-2.4271595l.032294-.326733c.08253-.7827231.179412-1.5618556.297824-2.3409882l.057412-.3769996c.122-.7647707.258353-1.5295414.409059-2.2871311l.078941-.3841806c.16147-.7575897.333706-1.5115889.52747-2.2619977l.093294-.3554568c.197353-.7611802.412647-1.5151794.645883-2.2619978l.089706-.2800568c.244-.7755421.502353-1.5439033.785823-2.3050834l.050235-.136438c.287059-.7647707.584883-1.5223604.904236-2.2763597l.057412-.1400284c.319352-.7432278.656647-1.4792747 1.008294-2.2081407l.129176-.2692854c.344471-.7001422.703294-1.3931034 1.076471-2.0824741l.179411-.326733c.373177-.6750089.764295-1.3392463 1.166177-1.9927123l.208118-.3446854c.409058-.653466.825294-1.2961606 1.263058-1.9316743l.222471-.3231425c.441353-.6355137.897059-1.2710273 1.374294-1.8921791l.20453-.2621045c.491588-.6391041.993941-1.2674368 1.514235-1.8814077l.143529-.1651617c.549-.6426946 1.108765-1.2746178 1.686471-1.8921791l.010765-.0107714c.584882-.6211518 1.184117-1.2279416 1.794117-1.8203696l.111235-.1077142.043059.0215428.437765.2513331c.301412.1687522.602824.3375045.900647.5134376l.523882.3231426.778647.4847138.552589.3662282.717647.4847138c.190176.129257.373176.2621045.556176.394952.229647.1651617.459294.3303234.681765.4990757l.556176.4200853.645883.5098471c.186588.1436189.366.2980092.549.4452186.208117.1723427.416235.3482758.617176.524209l.538236.4667614.595647.5385709c.172235.1615713.348058.3231425.516705.4883043.193765.1831141.38753.3698187.574118.5565232.172235.1687523.340882.333914.502353.5026662l.556177.5816566c.165058.1687522.322941.3410949.484411.517028l.538236.5960185.459294.5313899c.179411.204657.348059.4129044.520294.6247423.147117.1795236.294235.3518663.437765.5349804.175823.2154284.340882.4344472.509529.653466l.409059.5385709c.172235.2297903.337294.4667615.505941.7001422.122.1723427.251176.3446853.369588.517028.190177.272876.369588.5493423.552588.8258087l.283471.4236758c.265529.4164948.527471.8365801.778647 1.2602559l.251177.4380377c.168647.2872378.333705.5744756.495176.8653039l.297824.5565232c.136352.2549236.272705.5098471.40547.7719516l.294235.599609c.122.251333.244.5026661.358824.7539992l.283471.6211518.330117.7539992c.089706.2118379.179412.4236758.261941.6391042l.301412.7539992.244.6570565.272706.7611802.222471.6678279.244.7719516c.071764.2226093.136353.4488091.200941.6750089.075353.258514.150706.5206185.218882.782723l.179412.6750089.190176.8006754c.053824.2261997.107647.4523995.154294.6785993.057412.2692854.114824.5421614.165059.8150373l.129177.6785993c.050235.2764664.096882.5565233.139941.8365801l.104059.6678279.111235.8688944c.028706.2154284.057412.4308567.078941.6462851.035883.3087806.057412.6103803.086118.919161l.050235.6139708c.025118.3410949.043059.6821898.057412 1.0232847l.028706.517028c.017941.5134376.028706 1.0304657.028706 1.5474937 0 .5170281-.010765 1.0340562-.028706 1.5510842zm-43.981 42.295768c-3.979353 0-7.872588-.520619-11.643824-1.554675l.157883-.179524c.538235-.596018 1.069294-1.202808 1.582411-1.816779l.215295-.265695c.480823-.574475.947294-1.163313 1.399411-1.755741l.233236-.298009c.484411-.635514.95447-1.281799 1.410176-1.9388554l.283471-.4021329c.462882-.6714184.915-1.3464273 1.349176-2.035798l.035882-.0502666c.423412-.6750089.832471-1.3607891 1.234353-2.0501599l.240412-.4129043c.394706-.6857803.771471-1.382332 1.137471-2.0824742l.193764-.3841805c.340883-.660647.671-1.3320654.986765-2.0070742l.122-.2513331c.333706-.7180945.649471-1.450551.958059-2.1830074l.104059-.2369712.104059.2369712c.305.7324564.624353 1.4613224.958058 2.1830074.035883.0861713.078942.1687522.118412.2513331.315765.6750088.645883 1.3464272.986765 2.0106646l.193765.3805901c.366.7001422.746353 1.3966939 1.13747 2.0824742l.240412.4129043c.401882.6893708.810941 1.375151 1.237941 2.0501599l.032294.0502666c.434177.6893707.889883 1.3643796 1.352765 2.035798l.279882.4057234c.459294.6534659.925765 1.2997509 1.410177 1.9352649l.233235.298009c.452118.592428.922177 1.177675 1.399412 1.755741l.215294.265695c.516706.613971 1.044176 1.220761 1.582412 1.816779l.157882.179524c-3.767647 1.034056-7.66447 1.554675-11.640235 1.554675zm-12.81-15.6795944c-.401883.653466-.825294 1.2997511-1.255883 1.9352648l-.22247.319552c-.444941.6391042-.900647 1.2710273-1.377882 1.8921791l-.20453.265695c-.488.6355136-.993941 1.2638463-1.514235 1.8814076l-.14353.1651618c-.545411.6426946-1.108764 1.2746178-1.68647 1.8921791l-.010765.010771c-.581294.621152-1.184118 1.224352-1.794118 1.82037l-.107647.107714-.050235-.025133-.409059-.233381c-.3121762-.175933-.6207644-.351866-.9257644-.53139l-.5059412-.312371c-.2691176-.161571-.5382353-.326733-.8001765-.499076l-.5382353-.351866c-.244-.1651617-.4915882-.326733-.732-.4954852l-.5454117-.387771c-.2332353-.1687522-.4664706-.333914-.6925294-.5026662l-.5418236-.4164948-.6602353-.5170281-.5382352-.4380376c-.2117059-.1795237-.4234118-.3518663-.6315295-.5349804l-.5202941-.4559901-.61-.5493423-.5095294-.4775328c-.1973529-.1867046-.3947059-.3769997-.5848823-.5708852-.1650589-.1615713-.3301177-.3231425-.4915883-.4918947-.1937647-.1938856-.3803529-.3913616-.5669412-.5888375l-.473647-.5062567-.5454118-.6103803-.4521176-.5170281-.5310588-.6391041-.4305883-.5206186-.5202941-.6750088-.3947059-.5170281c-.1794117-.2405616-.351647-.4847138-.5238823-.7288659-.1184118-.1651618-.2368236-.3231425-.3516471-.4918948-.1973529-.2836473-.3875294-.5708851-.5741176-.8617134-.0861177-.1256665-.1794118-.2549235-.2619412-.387771-.2691177-.4164949-.5274706-.8401706-.7822353-1.2638464l-.2332353-.4057234c-.1758235-.2980092-.3480588-.5960185-.5131177-.8976182l-.2834705-.5313899-.4198236-.7970849-.2870588-.5852471c-.1255882-.2549235-.2511765-.5098471-.3695882-.7683611l-.2762941-.6139708c-.1112353-.2513331-.2260589-.5026662-.3337059-.7575898l-.2619412-.6391041c-.1004706-.2513331-.2045294-.5026662-.3014118-.7575897l-.2404117-.653466-.2762942-.7683612-.2224705-.6570565-.2475883-.7791325-.1973529-.6678279c-.0717647-.2621045-.1507059-.5277995-.2188824-.789904l-.1794117-.6714184-.1901765-.8042659c-.0538235-.2261997-.1076471-.448809-.1542941-.6750088l-.1650588-.8186278c-.0430589-.2261997-.0897059-.4488091-.1291765-.6750088l-.1399412-.8401706-.1040588-.6678279c-.0394706-.2872378-.075353-.5744757-.1076471-.8653039l-.0825294-.6498756c-.0322941-.3051902-.0574118-.6139708-.0825294-.9227514-.0179412-.2010665-.0394706-.4057235-.0538235-.6103804-.0251177-.3375044-.0394706-.6821898-.0574118-1.0232847l-.0251176-.5134376c-.0179412-.517028-.0287059-1.0340561-.0287059-1.5510842 0-.517028.0107647-1.0340561.0287059-1.5474937l.0251176-.517028.0574118-1.0232847c.0143529-.2046569.0358823-.4093139.0538235-.6103804.0251176-.3087806.0502353-.6139708.0825294-.9191609l.0789412-.6462851.1112353-.8724849.107647-.6678279c.0430589-.2800568.0861177-.5601137.136353-.8365801l.1291765-.6821898.1650588-.8114468.1542941-.6785993c.061-.265695.1255882-.5349805.1937647-.8006754.0538235-.2261998.1148235-.4488091.1758235-.6750089l.2188824-.789904.2009412-.6678279.244-.7755421.2224705-.6606469.2727059-.7647707.244-.653466c.0968824-.2549236.2009412-.5062567.3014118-.7575897.0861176-.2154284.1722353-.4308568.2619412-.6391042l.3337059-.7539992c.0897058-.2082474.1794117-.4164948.2798823-.6211518l.3624118-.7575897.290647-.5960185c.1327647-.2621045.2727059-.5206185.4126471-.7791325l.2870588-.5493423.502353-.8724849.2475882-.4308567c.2511765-.4236758.5131176-.8437611.7822353-1.2602559.0897059-.1436189.1865882-.2836473.2834706-.4236758.1794117-.2764664.3588235-.5529327.549-.8258087l.366-.5134376.5095294-.7073231c.1327647-.1795236.2727059-.3554568.4090588-.5313899.1686471-.2226093.3372941-.4416281.5095294-.6570565l.4377647-.5385709.5202941-.6211518c.1507059-.1795236.3085883-.3554568.4628824-.5313899l.5346471-.5960185c.1578823-.1759331.3229411-.3482758.4844117-.517028.183-.197476.3695883-.3877711.5561765-.5816566l.4987647-.4990757c.1901765-.190295.3839412-.3769996.5777059-.5601137l.5167059-.4847138.5992353-.5421614.534647-.4667614c.2045294-.1795237.4126471-.3518663.6207647-.524209.1794118-.1507999.3588235-.2980093.5454118-.4452186l.6458823-.5098471.5561765-.4200853c.2224706-.1687523.4521177-.333914.6817647-.4990757l.5525882-.394952.7248236-.4883043.549-.3590473c.2583529-.1687522.5202941-.326733.7822353-.4883042l.5202941-.3231426c.2978235-.1759331.5992353-.3446854.9006474-.5134376l.437764-.2513331.043059-.0215428.107647.1077142c.613588.592428 1.216412 1.1992178 1.794118 1.8203696.007176 0 .010765.007181.014353.0107714.577706.6175613 1.141059 1.2494845 1.68647 1.8921791l.14353.1651617c.520294.6139709 1.026235 1.2423036 1.514235 1.8814077l.20453.2621045c.473647.6211518.932941 1.2566654 1.377882 1.8957695l.218882.3195521c.437765.6355137.857588 1.2782083 1.263059 1.9316743l.211706.3446854c.401882.653466.789412 1.3177034 1.162588 1.9927123l.179412.326733c.373176.6893707.735588 1.3823319 1.076471 2.0824741l.129176.2692854c.351647.728866.692529 1.4649129 1.008294 2.2081407l.057412.1400284c.319353.7539993.620765 1.511589.904235 2.2763597l.053824.136438c.279882.7611801.538235 1.5295413.782235 2.3050834l.089706.2764664c.233235.7504088.448529 1.5079985.645882 2.2655882.035883.1184856.064588.2369712.096883.3590473.190176.7468183.362411 1.5008175.523882 2.2619977l.078941.3805901c.154294.7575897.287059 1.5223604.409059 2.2871311l.057412.3769996c.114823.7791326.215294 1.5582651.297823 2.3409882l.035883.326733c.075353.8042658.139941 1.6157126.179411 2.4271595l.010765.2154283c.043059.8545325.064588 1.709065.064588 2.5671879 0 .8617135-.021529 1.716246-.064588 2.5707785l-.007176.2154283c-.043059.8114468-.107647 1.6193032-.186589 2.4271595l-.032294.3231425c-.078941.7863135-.179412 1.5654461-.297823 2.3409882l-.057412.3769996c-.118412.7683612-.254765 1.5295414-.409059 2.2907216l-.078941.3805901c-.161471.7611802-.333706 1.5151794-.523882 2.2619977l-.093295.3590473c-.200941.7575897-.416235 1.5151794-.645882 2.2619977l-.093294.2764664c-.244.7755421-.502353 1.5439033-.785824 2.3086739l-.050235.1328475c-.28347.7647707-.584882 1.5259509-.904235 2.2799501l-.057412.136438c-.315765.7432278-.656647 1.4792747-1.008294 2.2117311l-.129176.265695c-.340883.7037326-.703295 1.4002843-1.076471 2.0824741l-.179412.3303235c-.373176.6714184-.760706 1.3356558-1.162588 1.9927123zm-32.1757061-56.9484863-.1650588.2656949c-.2511765.394952-.5023529.789904-.7391765 1.1956274l-.305.5134376c-.1901764.3303235-.3803529.660647-.5669411.9981514l-.305.5457518-.5597647 1.0663704-.2404118.4667615c-.2511765.5098471-.5023529 1.0196942-.7391765 1.5367222l-.1184117.265695c-.197353.4344472-.3911177.8724849-.5741177 1.314113-.0789412.1795236-.1507059.3590473-.2224706.5349804-.1507059.3590473-.2942353.7252755-.4341764 1.0915037l-.2152942.5672947c-.1435294.387771-.2834705.7755421-.4198235 1.1669036l-.1614706.4739424c-.183.5421613-.3588235 1.0915036-.5238823 1.6444364l-.0717647.2513331c-.1399412.4703519-.2727059.9442943-.3947059 1.4182367l-.1435294.5529328c-.0968824.3841806-.1901765.7719516-.2762941 1.1597226l-.1327648.592428c-.0897058.4093139-.1722352.8258087-.2511764 1.2351226l-.0932941.4847138c-.1076471.5708852-.2009412 1.1453608-.2870589 1.7234269l-.0358823.2656949c-.0717647.4883043-.1327647.9801991-.1901765 1.4720938l-.061.5744756-.0717647.6785994h-58.68558823c2.41488233-27.3055444 25.49082353-48.794523 53.51135293-48.794523 10.4955882 0 20.7220588 3.0734445 29.4235294 8.7607532l-.0322941.0251333-.2009412.1328475c-.4198235.2764664-.839647.5565232-1.2558823.843761l-.4700588.333914c-.3229412.2333807-.6458824.4667614-.9616471.7037326l-.4987647.3734092-.9688235.7539992-.4090589.3303235c-.4449411.3626378-.8827058.7324564-1.3168823 1.1094561l-.2152941.1938855c-.3588236.319552-.7176471.6391041-1.0692942.9658371l-.4341764.4129044c-.2798824.2656949-.5561765.5313899-.8252941.8042658l-.4485295.4488091c-.2798823.2836474-.5561764.5708852-.8252941.8617134l-.3767647.394952c-.3839412.4164949-.7607059.8401706-1.1302941 1.2674369l-.2152941.2405616c-.305.3590473-.6028235.7180946-.8970588 1.0771418l-.3731765.4739424c-.2368235.2980092-.4700588.5960185-.6997059.9012086l-.3803529.5062567c-.2368236.3231425-.4664706.6462851-.6961177.9694276l-.3121764.4380377c-.3229412.4667614-.6351177.9335228-.9437059 1.4110557zm103.4524121-34.20284228c-14.087412 0-27.755 4.70710961-38.828294 13.30988198l-.08253-.0359047-2.310823 1.9819409c-.459294.394952-.907824.789904-1.356353 1.1992179l-.427.394952c-.297824.2800568-.595647.5529327-.889883.8365801l-.495176.4883043c-.261941.258514-.527471.517028-.782235.7791325l-.50953.5277995c-.247588.2549236-.491588.5134376-.732.7719516l-.509529.5565233c-.233236.258514-.466471.517028-.69253.7791325l-.495176.5708852c-.226059.2621045-.44853.5313899-.671.7970849l-.473647.5744756-.653059.8293992-.448529.5744756-.645883.8688944c-.136353.1867046-.276294.3734091-.409059.5637042-.226058.3123711-.444941.6247422-.663823.9407038l-.351647.5134376c-.251177.3734092-.502353.7468183-.742765 1.1274084l-.233235.3518663c-.315765.5026662-.63153 1.0089228-.932941 1.51877l-.111236.190295c-.261941.4452186-.520294.8904372-.775058 1.3392463l-.276295.5134376c-.190176.3446854-.380353.6893707-.559764 1.041237-.107647.2010665-.208118.4057234-.312177.6103804-.165059.3195521-.326529.6391041-.484412.9622467l-.315764.6606469-.437765.9407038-.305.6857803c-.136353.3087807-.269118.6211518-.398294.9335229-.050235.1148951-.104059.2297902-.150706.3482758-.050235-.1184856-.104059-.2333807-.150706-.3518663l-.401882-.9299324-.305-.6857803c-.14353-.3159615-.287059-.6283327-.437765-.9407038l-.315765-.6606469-.480823-.9622467-.312177-.6103804c-.183-.3518663-.373176-.6965516-.559764-1.041237l-.279883-.5134376c-.251176-.4488091-.509529-.8976182-.77147-1.3392463l-.111236-.190295c-.305-.5098472-.617176-1.0161038-.936529-1.51877l-.233235-.3518663c-.244-.3805901-.488-.7539992-.739177-1.1274084l-.358823-.5134376c-.215294-.3159616-.430588-.6283327-.656647-.9407038l-.412647-.5637042-.645883-.8653039-.448529-.5744756c-.215294-.2800569-.430588-.5565233-.653059-.8293992l-.473647-.5744756c-.222471-.2692855-.444941-.5385709-.671-.8006754l-.495176-.5744756-.69253-.7755421-.509529-.5565233-.728412-.7719516-.509529-.5277995c-.258353-.2621045-.520295-.5206185-.785824-.7791325l-.495176-.4883043c-.294236-.2836474-.588471-.5565233-.889883-.8365801l-.427-.394952c-.444941-.4057234-.897059-.8078564-1.356353-1.1992179l-2.310823-1.9855314-.078941.0359048c-11.0732946-8.59559149-24.7444711-13.30270111-38.8318828-13.30270111-34.8561177-.00359047-63.2139412 28.25342911-63.2139412 62.98048031v4.732243h68.3917647c.0143529.190295.0394706.3841805.061.5744756l.0861177.8078563c.0394705.3518664.0861176.7001422.1327647 1.0448276l.1112353.7863135c.0538235.3590472.1148235.7109136.1794117 1.0663703.0430588.2513331.0825294.5026662.1291765.7468184.0717647.3734091.1471176.7432278.2260588 1.1130465l.1435294.6821898c.0932941.4200853.197353.8365801.3014118 1.2494844.0430588.1795237.0825294.3554568.1291765.53139.1542941.592428.3193529 1.1812655.4915882 1.762922l.0251176.0789904c.1686471.5565233.3444706 1.1130466.5274706 1.6587984.061.1867046.1291765.3662282.1937647.5493423.136353.3913615.2727059.7791326.4162353 1.1669036l.2547647.653466.4126471 1.0376466.2942353.6821898.4305882.98738.3229412.6929612c.1507059.3159616.3014118.6319232.4592941.9478848l.3516471.6929612c.1578823.3087806.3193529.6139708.4844117.919161l.3767647.6893707c.1686471.3015997.3408824.599609.5167059.8976182l.3947059.6750089c.1794118.2980092.366.5960184.5525882.8904372l.4126471.646285c.1937647.3015997.3947059.599609.5956471.8976182l.4162353.6103803c.2152941.3051902.4377647.6103804.656647.9083896.136353.1867046.2691177.3769996.4090588.5601137.2511765.333914.5095295.6642375.7714706.994561l.3408824.4380376c.3803529.4739424.7678823.9407039 1.1661765 1.4002843l.0251176.0287238c.3875294.4488091.7822353.8904372 1.1841176 1.3248844l.4090589.4308566c.2798823.294419.5633529.592428.8504117.883256l.5095294.502667c.2619412.258514.5238824.517028.793.771951l.563353.517028c.2619412.240562.5202941.477533.7894118.714504l.595647.517028c.2655294.2262.5274706.448809.7965882.667828l.6279412.509847.8109412.635514.6494706.488304c.2762941.208248.5561765.409314.8360588.610381l.6638235.466761.868353.585247.671.441628.9114117.563704c.2224706.136438.4449412.276467.671.409314.319353.190295.6458824.37341.9688236.556524l.6458823.366228c.3624118.197476.732.387771 1.1015883.574475.183.096943.366.197476.5525882.290829.5597647.280057 1.1231176.552933 1.6936471.811447 7.0437059 3.231425 14.5574709 4.86509 22.3259999 4.86509s15.278706-1.633665 22.322412-4.86509c.574117-.258514 1.13747-.53139 1.693647-.811447.183-.089762.358823-.190295.541823-.280057.373177-.193886.746353-.387771 1.112353-.588838.215294-.114895.427-.240561.638706-.359047.330118-.186704.656647-.369819.979588-.560114l.663824-.405723c.308588-.186705.613588-.377.918588-.570885l.660236-.434447c.294235-.193886.58847-.391362.879117-.592428l.653059-.459581.850412-.617561c.215294-.157981.427-.319552.635117-.481123l.825295-.646286.617176-.495485.807353-.68219.588471-.506256c.269117-.240562.538235-.484714.800176-.728866l.549-.502666c.276294-.262105.545412-.5278.814529-.789904l.488-.484714c.297824-.3016.588471-.60679.879118-.91198l.380353-.4021331c.825294-.8976182 1.621882-1.8167791 2.382588-2.7646639.107647-.129257.208118-.2621045.312177-.394952.269117-.3446854.538235-.6857803.800176-1.0340561.132765-.1795237.258353-.3590473.391118-.53139l.674588-.9407038.405471-.592428.61-.91198.398294-.6319232c.190176-.3015997.380353-.6031994.563353-.9083896.132764-.2154284.261941-.4380377.387529-.6570565.179412-.3051902.351647-.6103803.523882-.9155705.125589-.2226093.251177-.4488091.369589-.6750089.168647-.3087806.330117-.6211517.491588-.9335228l.348059-.6821898c.157882-.3159616.308588-.6355137.459294-.9586562l.322941-.6821898.434177-.9981514c.096882-.2226093.197352-.4452186.287058-.6714184.14353-.3482758.287059-.7037326.419824-1.055599l.251176-.6391041c.14353-.3913615.283471-.782723.419824-1.177675l.190176-.5385709c.186589-.5529328.362412-1.1130465.531059-1.6731602l.02153-.0610381c.175823-.585247.337294-1.177675.491588-1.770103.046647-.1687522.082529-.3410949.125588-.5134376.107647-.4200853.211706-.8401706.305-1.2638463l.143529-.6750089.226059-1.1202274.132765-.7432279c.061-.3590472.122-.7109136.175824-1.0699608l.107647-.7827231c.050235-.3482758.096882-.6965516.136353-1.048418l.086117-.8078563.064588-.5744756h68.391765v-4.732243c0-34.7306417-28.361412-62.98407078-63.217529-62.98407078z" mask="url(#a)"/><path d="m94.3868313 63.2592593 6.8921667 7.0288065 6.895728-7.0288065-6.895728-7.0288066zm41.4420027 0 6.892168 7.0288065 6.892167-7.0288065-6.892167-7.0288066z"/></g></g><g fill="#302d51"><path d="m14.6059515 29.2755219c5.3814061 0 8.9987758-3.2176457 8.9987758-8.7011204s-3.6173697-8.7011204-8.9970909-8.7011204h-5.65435155v17.4022408h5.65435155zm-14.60763635-24.56192365h14.96987875c10.4898667 0 17.6808 6.11521145 17.6808 15.86080325 0 9.7439072-7.1892484 15.8624879-17.6808 15.8624879h-14.9681939v-31.72329115z" mask="url(#b)" transform="translate(.001635 139.001007)"/><path d="m34.2310667 36.4352047h8.5927272v-24.5619236h-8.5927272zm-.9502546-31.85637695c0-2.58590898 2.0807879-4.57882775 5.2466182-4.57882775s5.2449333 1.85814827 5.2449333 4.44068798c0 2.71899485-2.079103 4.71359825-5.2449333 4.71359825-3.1675151 0-5.2466182-1.9946034-5.2466182-4.57714311zm30.2531394 18.71456855c0-2.9902204-2.2610667-4.9848238-5.3359151-4.9848238-3.0765334 0-5.3814061 1.9946034-5.3814061 4.9865085 0 2.9902204 2.3048727 5.0286243 5.3814061 5.0286243 3.0748484 0 5.3342303-2.0384039 5.3342303-5.030309zm8.5017455-11.4201152v20.0757506c0 9.2907414-5.2466182 13.6859443-14.3818667 13.6859443-4.7007273 0-9.1790545-1.0865871-12.1646061-3.2176457l3.1220243-6.0276106c2.0336121 1.6324077 5.3797212 2.6280248 8.2742909 2.6280248 4.6131151 0 6.5574303-2.0838889 6.5574303-5.9366406v-.8153615c-1.6730545 1.9491184-4.1615758 2.900935-7.2802303 2.900935-6.5119394 0-12.0298182-4.6226281-12.0298182-11.8732811 0-7.2051678 5.5178788-11.827796 12.0298182-11.827796 3.3916 0 6.0149091 1.0882718 7.6862788 3.3995859v-2.9919051zm2.801903 24.5619236h8.5927273v-24.5619236h-8.5927273zm-.9502545-31.85637695c0-2.58590898 2.0824727-4.57882775 5.2466181-4.57882775 3.1641455 0 5.2449334 1.85814827 5.2449334 4.44068798 0 2.71899485-2.0807879 4.71359825-5.2449334 4.71359825-3.1675151 0-5.2466181-1.9946034-5.2466181-4.57714311zm29.3028845 30.85907525c-1.492775.9518167-3.7083512 1.4066671-5.9694179 1.4066671-6.2844848 0-9.9473454-3.0828752-9.9473454-9.383396v-8.24627h-3.5718788v-6.4352914h3.5718788v-6.38980636h8.5910424v6.38980636h5.6071759v6.4352914h-5.6071759v8.1569845c0 1.8126632 1.0395515 2.8099649 2.5778182 2.8099649.9485697 0 1.8988247-.2712256 2.6216247-.7698764z" mask="url(#c)" transform="translate(.001635 139.001007)"/><path d="m118.158424 28.5494458v-2.1293739h-3.708351c-2.759782 0-3.753843.9973017-3.753843 2.4932543 0 1.4487829 1.176025 2.4932543 3.211322 2.4932543 1.898824 0 3.571878-.9080163 4.249187-2.8571347m8.592728-5.7547003v13.6404592h-8.003031v-3.1721606c-1.2232 2.3584837-3.664545 3.5798414-7.236424 3.5798414-5.880121 0-9.133564-3.3069311-9.133564-7.5673636 0-4.5316581 3.300619-7.341623 10.8976-7.341623h4.882691c-.134787-2.4932542-1.807842-3.8982367-5.199442-3.8982367-2.352049 0-4.973673.8170462-6.648412 2.1310585l-2.892885-5.847355c2.803588-1.8581483 6.963479-2.85545 10.806618-2.85545 7.959224 0 12.526849 3.536041 12.526849 11.3291452m2.712606 13.6421438h8.591042v-33.62523977h-8.591042zm22.29223 0h8.953285v-31.72160645h-8.953285zm38.301661-14.0464553v14.0464553h-8.592728v-12.6431575c0-3.5343564-1.536581-5.0303089-4.023418-5.0303089-2.758097 0-4.884376 1.7233777-4.884376 5.8001854v11.873281h-8.592727v-24.5619236h8.186679v2.6735098c1.94263-2.0384038 4.700727-3.0828752 7.777261-3.0828752 5.741963 0 10.129309 3.3103004 10.129309 10.923149m21.026909 14.04814h8.592727v-33.62523977h-8.592727zm-8.998776-24.1997279v.5441359h5.832945v6.4352914h-5.607175v17.2203006h-8.592728v-17.2203006h-3.571878v-6.4352914h3.571878v-.635106c0-5.89115549 3.664546-9.74222253 10.220291-9.74222253 2.080788 0 4.296364.40768076 5.698158 1.26852733l-2.124594 6.07309567c-.724485-.4093654-1.673055-.72439144-2.577818-.72439144-1.809528 0-2.849079 1.04110207-2.849079 3.21764567z" mask="url(#d)" transform="translate(.001635 139.001007)"/></g><path d="m248.299491 11.8732811v24.5619236h-8.184994v-2.6280247c-1.853333 2.0384038-4.476642 3.0373901-7.28023 3.0373901-6.014909 0-10.40057-3.4450709-10.40057-11.2398597v-13.7314293h8.591042v12.3264469c0 3.8072666 1.492776 5.3032191 4.070594 5.3032191 2.530643 0 4.611431-1.6778927 4.611431-5.8001854v-11.8294806z" fill="#eb6052" mask="url(#e)" transform="translate(.001635 139.001007)"/><path d="m266.6576 36.4352047-4.385661-6.4352913-4.704097 6.4352913h-9.315527l9.315527-12.2809618-9.044266-12.2809618h9.677769l4.341855 6.2095508 4.522133-6.2095508h9.088073l-9.044267 11.9642511 9.362703 12.5976725z" fill="#eb6052" mask="url(#f)" transform="translate(.001635 139.001007)"/></g></svg>